<svg width="16" height="15" viewBox="0 0 16 15" fill="none" xmlns="http://www.w3.org/2000/svg">
<g clip-path="url(#clip0_388_492)">
<path d="M4.5551 0C4.26147 0 4.02344 0.239847 4.02344 0.535724V1.60714H5.08674V0.535724C5.08674 0.239847 4.84871 0 4.5551 0Z" fill="#B9B9B9"/>
<path d="M11.998 0C11.7043 0 11.4663 0.239847 11.4663 0.535724V1.60714H12.5296V0.535724C12.5296 0.239847 12.2916 0 11.998 0Z" fill="#B9B9B9"/>
<path d="M14.1248 1.60718H12.5299V3.75004C12.5299 4.04592 12.2918 4.28577 11.9982 4.28577C11.7046 4.28577 11.4665 4.04592 11.4665 3.75004V1.60718H5.08671V3.75004C5.08671 4.04592 4.84868 4.28577 4.55504 4.28577C4.26141 4.28577 4.02338 4.04592 4.02338 3.75004V1.60718H2.42845C1.54758 1.60718 0.833496 2.32672 0.833496 3.21432V13.3929C0.833496 14.2805 1.54758 15 2.42845 15H14.1248C15.0057 15 15.7198 14.2805 15.7198 13.3929V3.21432C15.7198 2.32672 15.0057 1.60718 14.1248 1.60718ZM14.6565 13.3929C14.6565 13.6888 14.4184 13.9286 14.1248 13.9286H2.42845C2.13482 13.9286 1.89679 13.6888 1.89679 13.3929V6.4286H14.6565V13.3929Z" fill="#B9B9B9"/>
<path d="M5.08666 7.5H4.02336C3.72973 7.5 3.4917 7.73985 3.4917 8.03573C3.4917 8.33161 3.72973 8.57146 4.02336 8.57146H5.08666C5.3803 8.57146 5.61833 8.33161 5.61833 8.03573C5.61833 7.73985 5.3803 7.5 5.08666 7.5Z" fill="#B9B9B9"/>
<path d="M8.80832 7.5H7.74504C7.45141 7.5 7.21338 7.73985 7.21338 8.03573C7.21338 8.33161 7.45141 8.57146 7.74504 8.57146H8.80832C9.10196 8.57146 9.33998 8.33161 9.33998 8.03573C9.33998 7.73985 9.10196 7.5 8.80832 7.5Z" fill="#B9B9B9"/>
<path d="M12.53 7.5H11.4667C11.1731 7.5 10.9351 7.73985 10.9351 8.03573C10.9351 8.33161 11.1731 8.57146 11.4667 8.57146H12.53C12.8237 8.57146 13.0617 8.33161 13.0617 8.03573C13.0617 7.73985 12.8236 7.5 12.53 7.5Z" fill="#B9B9B9"/>
<path d="M5.08666 9.64294H4.02336C3.72973 9.64294 3.4917 9.88279 3.4917 10.1787C3.4917 10.4745 3.72973 10.7144 4.02336 10.7144H5.08666C5.3803 10.7144 5.61833 10.4745 5.61833 10.1787C5.61833 9.88279 5.3803 9.64294 5.08666 9.64294Z" fill="#B9B9B9"/>
<path d="M8.80832 9.64294H7.74504C7.45141 9.64294 7.21338 9.88279 7.21338 10.1787C7.21338 10.4745 7.45141 10.7144 7.74504 10.7144H8.80832C9.10196 10.7144 9.33998 10.4745 9.33998 10.1787C9.33998 9.88279 9.10196 9.64294 8.80832 9.64294Z" fill="#B9B9B9"/>
<path d="M12.53 9.64294H11.4667C11.1731 9.64294 10.9351 9.88279 10.9351 10.1787C10.9351 10.4745 11.1731 10.7144 11.4667 10.7144H12.53C12.8237 10.7144 13.0617 10.4745 13.0617 10.1787C13.0616 9.88279 12.8236 9.64294 12.53 9.64294Z" fill="#B9B9B9"/>
<path d="M5.08666 11.7856H4.02336C3.72973 11.7856 3.4917 12.0255 3.4917 12.3214C3.4917 12.6172 3.72973 12.8571 4.02336 12.8571H5.08666C5.3803 12.8571 5.61833 12.6172 5.61833 12.3213C5.61833 12.0255 5.3803 11.7856 5.08666 11.7856Z" fill="#B9B9B9"/>
<path d="M8.80832 11.7856H7.74504C7.45141 11.7856 7.21338 12.0255 7.21338 12.3214C7.21338 12.6172 7.45141 12.8571 7.74504 12.8571H8.80832C9.10196 12.8571 9.33998 12.6172 9.33998 12.3214C9.33998 12.0255 9.10196 11.7856 8.80832 11.7856Z" fill="#B9B9B9"/>
<path d="M12.53 11.7856H11.4667C11.1731 11.7856 10.9351 12.0255 10.9351 12.3214C10.9351 12.6172 11.1731 12.8571 11.4667 12.8571H12.53C12.8237 12.8571 13.0617 12.6172 13.0617 12.3214C13.0617 12.0255 12.8236 11.7856 12.53 11.7856Z" fill="#B9B9B9"/>
</g>
<defs>
<clipPath id="clip0_388_492">
<rect width="14.8863" height="15" fill="white" transform="translate(0.833496)"/>
</clipPath>
</defs>
</svg>
